<svg width="35" height="35" viewBox="0 0 35 35" fill="none" xmlns="http://www.w3.org/2000/svg">
<path d="M16.7709 20.4167C22.8113 20.4167 27.7084 22.702 27.7084 25.5209V29.1667H5.83337V25.5209C5.83337 22.702 10.7305 20.4167 16.7709 20.4167ZM26.25 25.5209C26.25 23.5084 22.0063 21.8751 16.7709 21.8751C11.5355 21.8751 7.29171 23.5084 7.29171 25.5209V27.7084H26.25V25.5209ZM16.7709 7.29175C18.1246 7.29175 19.4228 7.82951 20.3801 8.78672C21.3373 9.74394 21.875 11.0422 21.875 12.3959C21.875 13.7496 21.3373 15.0479 20.3801 16.0051C19.4228 16.9623 18.1246 17.5001 16.7709 17.5001C15.4172 17.5001 14.1189 16.9623 13.1617 16.0051C12.2045 15.0479 11.6667 13.7496 11.6667 12.3959C11.6667 11.0422 12.2045 9.74394 13.1617 8.78672C14.1189 7.82951 15.4172 7.29175 16.7709 7.29175ZM16.7709 8.75008C15.8039 8.75008 14.8766 9.1342 14.1929 9.81792C13.5092 10.5016 13.125 11.429 13.125 12.3959C13.125 13.3629 13.5092 14.2902 14.1929 14.9739C14.8766 15.6576 15.8039 16.0417 16.7709 16.0417C17.7378 16.0417 18.6651 15.6576 19.3489 14.9739C20.0326 14.2902 20.4167 13.3629 20.4167 12.3959C20.4167 11.429 20.0326 10.5016 19.3489 9.81792C18.6651 9.1342 17.7378 8.75008 16.7709 8.75008Z" fill="black"/>
</svg>
