<svg width="30" height="30" viewBox="0 0 30 30" fill="none" xmlns="http://www.w3.org/2000/svg">
<path fill-rule="evenodd" clip-rule="evenodd" d="M28.125 15C28.125 15.2486 28.0262 15.4871 27.8504 15.6629C27.6746 15.8387 27.4361 15.9375 27.1875 15.9375L5.07562 15.9375L10.9762 21.8362C11.1523 22.0123 11.2512 22.251 11.2512 22.5C11.2512 22.7489 11.1523 22.9877 10.9762 23.1637C10.8002 23.3398 10.5615 23.4387 10.3125 23.4387C10.0635 23.4387 9.82479 23.3398 9.64875 23.1637L2.14875 15.6637C2.06144 15.5767 1.99218 15.4732 1.94491 15.3593C1.89765 15.2454 1.87332 15.1233 1.87332 15C1.87332 14.8767 1.89765 14.7546 1.94491 14.6407C1.99218 14.5268 2.06144 14.4233 2.14875 14.3362L9.64875 6.83624C9.82479 6.66021 10.0635 6.56131 10.3125 6.56131C10.5615 6.56131 10.8002 6.66021 10.9763 6.83624C11.1523 7.01228 11.2512 7.25104 11.2512 7.49999C11.2512 7.74895 11.1523 7.98771 10.9763 8.16374L5.07562 14.0625L27.1875 14.0625C27.4361 14.0625 27.6746 14.1613 27.8504 14.3371C28.0262 14.5129 28.125 14.7514 28.125 15V15Z" fill="#4A4848"/>
</svg>
