<svg width="21" height="21" viewBox="0 0 21 21" fill="none" xmlns="http://www.w3.org/2000/svg">
<path d="M17.0625 2.625H14.4375V1.3125H13.125V2.625H7.875V1.3125H6.5625V2.625H3.9375C3.21562 2.625 2.625 3.21562 2.625 3.9375V17.0625C2.625 17.7844 3.21562 18.375 3.9375 18.375H17.0625C17.7844 18.375 18.375 17.7844 18.375 17.0625V3.9375C18.375 3.21562 17.7844 2.625 17.0625 2.625ZM17.0625 17.0625H3.9375V7.875H17.0625V17.0625ZM17.0625 6.5625H3.9375V3.9375H6.5625V5.25H7.875V3.9375H13.125V5.25H14.4375V3.9375H17.0625V6.5625Z" fill="black"/>
</svg>
