<svg width="20" height="18" viewBox="0 0 20 18" fill="none" xmlns="http://www.w3.org/2000/svg">
<path d="M5.83333 1.5H6.66667C6.88768 1.5 7.09964 1.57902 7.25592 1.71967C7.4122 1.86032 7.5 2.05109 7.5 2.25V3H11.6667V2.25C11.6667 2.05109 11.7545 1.86032 11.9107 1.71967C12.067 1.57902 12.279 1.5 12.5 1.5H13.3333C13.5543 1.5 13.7663 1.57902 13.9226 1.71967C14.0789 1.86032 14.1667 2.05109 14.1667 2.25V3C14.8297 3 15.4656 3.23705 15.9344 3.65901C16.4033 4.08097 16.6667 4.65326 16.6667 5.25V13.5C16.6667 14.0967 16.4033 14.669 15.9344 15.091C15.4656 15.5129 14.8297 15.75 14.1667 15.75H5C4.33696 15.75 3.70107 15.5129 3.23223 15.091C2.76339 14.669 2.5 14.0967 2.5 13.5V5.25C2.5 4.65326 2.76339 4.08097 3.23223 3.65901C3.70107 3.23705 4.33696 3 5 3V2.25C5 2.05109 5.0878 1.86032 5.24408 1.71967C5.40036 1.57902 5.61232 1.5 5.83333 1.5ZM12.5 3H13.3333V2.25H12.5V3ZM6.66667 3V2.25H5.83333V3H6.66667ZM5 3.75C4.55797 3.75 4.13405 3.90804 3.82149 4.18934C3.50893 4.47064 3.33333 4.85218 3.33333 5.25V6H15.8333V5.25C15.8333 4.85218 15.6577 4.47064 15.3452 4.18934C15.0326 3.90804 14.6087 3.75 14.1667 3.75H5ZM3.33333 13.5C3.33333 13.8978 3.50893 14.2794 3.82149 14.5607C4.13405 14.842 4.55797 15 5 15H14.1667C14.6087 15 15.0326 14.842 15.3452 14.5607C15.6577 14.2794 15.8333 13.8978 15.8333 13.5V6.75H3.33333V13.5ZM10 9.75H14.1667V13.5H10V9.75ZM10.8333 10.5V12.75H13.3333V10.5H10.8333Z" fill="black"/>
</svg>
