<svg width="21" height="21" viewBox="0 0 21 21" fill="none" xmlns="http://www.w3.org/2000/svg">
<path d="M2.09998 5.25002C2.09998 4.69307 2.32122 4.15893 2.71505 3.7651C3.10888 3.37127 3.64302 3.15002 4.19998 3.15002H16.8C17.3569 3.15002 17.8911 3.37127 18.2849 3.7651C18.6787 4.15893 18.9 4.69307 18.9 5.25002V8.55332C18.5835 8.26999 18.2303 8.03054 17.85 7.84142V5.25002C17.85 4.97155 17.7394 4.70448 17.5424 4.50756C17.3455 4.31065 17.0785 4.20002 16.8 4.20002H4.19998C3.9215 4.20002 3.65443 4.31065 3.45751 4.50756C3.2606 4.70448 3.14998 4.97155 3.14998 5.25002V13.65C3.14998 13.9285 3.2606 14.1956 3.45751 14.3925C3.65443 14.5894 3.9215 14.7 4.19998 14.7H11.8209C11.9007 14.8187 11.9857 14.9342 12.075 15.0455V15.75H4.19998C3.64302 15.75 3.10888 15.5288 2.71505 15.1349C2.32122 14.7411 2.09998 14.207 2.09998 13.65V5.25002ZM19.425 12.075C19.425 13.0767 19.0249 13.9839 18.375 14.6475V18.9C18.375 18.9975 18.3478 19.0931 18.2966 19.176C18.2453 19.259 18.172 19.326 18.0848 19.3696C17.9976 19.4132 17.8999 19.4317 17.8028 19.4229C17.7057 19.4141 17.613 19.3785 17.535 19.32L16.065 18.2175C15.9741 18.1494 15.8636 18.1125 15.75 18.1125C15.6364 18.1125 15.5259 18.1494 15.435 18.2175L13.965 19.32C13.887 19.3785 13.7942 19.4141 13.6971 19.4229C13.6 19.4317 13.5024 19.4132 13.4152 19.3696C13.328 19.326 13.2546 19.259 13.2034 19.176C13.1521 19.0931 13.125 18.9975 13.125 18.9V14.6475C12.7031 14.217 12.3937 13.6893 12.2239 13.111C12.054 12.5326 12.0291 11.9214 12.1512 11.3312C12.2732 10.7409 12.5386 10.1898 12.924 9.72625C13.3093 9.26274 13.8027 8.90113 14.3607 8.67327C14.9187 8.44541 15.5242 8.35831 16.1238 8.41963C16.7235 8.48095 17.2988 8.68881 17.7991 9.0249C18.2995 9.361 18.7095 9.815 18.993 10.3469C19.2765 10.8788 19.4249 11.4723 19.425 12.075V12.075ZM15.75 15.75C15.1861 15.75 14.6527 15.624 14.175 15.3962V17.5875L15.4801 16.8042C15.5617 16.7554 15.6549 16.7296 15.75 16.7296C15.845 16.7296 15.9383 16.7554 16.0198 16.8042L17.325 17.5875V15.3962C16.8329 15.6299 16.2948 15.7508 15.75 15.75V15.75ZM15.75 14.7C16.4462 14.7 17.1138 14.4235 17.6061 13.9312C18.0984 13.4389 18.375 12.7712 18.375 12.075C18.375 11.3788 18.0984 10.7112 17.6061 10.2189C17.1138 9.72659 16.4462 9.45002 15.75 9.45002C15.0538 9.45002 14.3861 9.72659 13.8938 10.2189C13.4015 10.7112 13.125 11.3788 13.125 12.075C13.125 12.7712 13.4015 13.4389 13.8938 13.9312C14.3861 14.4235 15.0538 14.7 15.75 14.7V14.7ZM5.24998 6.82502C5.24998 6.68579 5.30529 6.55225 5.40374 6.45379C5.5022 6.35534 5.63574 6.30002 5.77498 6.30002H15.225C15.3642 6.30002 15.4977 6.35534 15.5962 6.45379C15.6947 6.55225 15.75 6.68579 15.75 6.82502C15.75 6.96426 15.6947 7.0978 15.5962 7.19626C15.4977 7.29471 15.3642 7.35002 15.225 7.35002H5.77498C5.63574 7.35002 5.5022 7.29471 5.40374 7.19626C5.30529 7.0978 5.24998 6.96426 5.24998 6.82502ZM5.77498 11.55C5.63574 11.55 5.5022 11.6053 5.40374 11.7038C5.30529 11.8022 5.24998 11.9358 5.24998 12.075C5.24998 12.2143 5.30529 12.3478 5.40374 12.4463C5.5022 12.5447 5.63574 12.6 5.77498 12.6H9.97498C10.1142 12.6 10.2478 12.5447 10.3462 12.4463C10.4447 12.3478 10.5 12.2143 10.5 12.075C10.5 11.9358 10.4447 11.8022 10.3462 11.7038C10.2478 11.6053 10.1142 11.55 9.97498 11.55H5.77498Z" fill="black"/>
</svg>
