<svg width="13" height="14" viewBox="0 0 13 14" fill="none" xmlns="http://www.w3.org/2000/svg">
<path d="M6.5 0.104248C8.22391 0.104248 9.87721 0.789067 11.0962 2.00805C12.3152 3.22704 13 4.88034 13 6.60425C13 8.32816 12.3152 9.98146 11.0962 11.2004C9.87721 12.4194 8.22391 13.1042 6.5 13.1042C4.77609 13.1042 3.12279 12.4194 1.90381 11.2004C0.684819 9.98146 0 8.32816 0 6.60425C0 4.88034 0.684819 3.22704 1.90381 2.00805C3.12279 0.789067 4.77609 0.104248 6.5 0.104248ZM6.5 0.788459C4.95756 0.788459 3.47829 1.40119 2.38762 2.49186C1.29694 3.58254 0.684211 5.0618 0.684211 6.60425C0.684211 8.14669 1.29694 9.62596 2.38762 10.7166C3.47829 11.8073 4.95756 12.42 6.5 12.42C8.04244 12.42 9.52171 11.8073 10.6124 10.7166C11.7031 9.62596 12.3158 8.14669 12.3158 6.60425C12.3158 5.0618 11.7031 3.58254 10.6124 2.49186C9.52171 1.40119 8.04244 0.788459 6.5 0.788459ZM6.1579 2.84109H6.84211V6.55156L10.0552 8.40646L9.71305 8.99899L6.1579 6.94635V2.84109Z" fill="black"/>
</svg>
