<svg width="33" height="34" viewBox="0 0 33 34" fill="none" xmlns="http://www.w3.org/2000/svg">
<g clip-path="url(#clip0_99_173)">
<path d="M15.6875 0.875C19.7818 0.875 23.7084 2.50145 26.6035 5.39654C29.4986 8.29163 31.125 12.2182 31.125 16.3125C31.125 20.4068 29.4986 24.3334 26.6035 27.2285C23.7084 30.1236 19.7818 31.75 15.6875 31.75C11.5932 31.75 7.66663 30.1236 4.77154 27.2285C1.87645 24.3334 0.25 20.4068 0.25 16.3125C0.25 12.2182 1.87645 8.29163 4.77154 5.39654C7.66663 2.50145 11.5932 0.875 15.6875 0.875ZM15.6875 2.5C12.0242 2.5 8.51093 3.95524 5.92059 6.54559C3.33024 9.13593 1.875 12.6492 1.875 16.3125C1.875 19.9758 3.33024 23.4891 5.92059 26.0794C8.51093 28.6698 12.0242 30.125 15.6875 30.125C19.3508 30.125 22.8641 28.6698 25.4544 26.0794C28.0448 23.4891 29.5 19.9758 29.5 16.3125C29.5 12.6492 28.0448 9.13593 25.4544 6.54559C22.8641 3.95524 19.3508 2.5 15.6875 2.5ZM16.0221 7.375H17.6471V18.4815L9.04421 24.6765L8.47068 22.9559L16.0221 17.125V7.375Z" fill="white"/>
<path d="M32.2646 26.9705C32.2646 30.4954 29.4072 33.3528 25.8823 33.3528C22.3574 33.3528 19.4999 30.4954 19.4999 26.9705C19.4999 23.4456 22.3574 20.5881 25.8823 20.5881C29.4072 20.5881 32.2646 23.4456 32.2646 26.9705Z" fill="#0069C1" stroke="white"/>
<path d="M26.072 29.344V24.256H26.828V29.344H26.072ZM23.84 27.16V26.452H29.06V27.16H23.84Z" fill="white"/>
</g>
<defs>
<clipPath id="clip0_99_173">
<rect width="33" height="34" fill="white"/>
</clipPath>
</defs>
</svg>
