<svg width="21" height="21" viewBox="0 0 21 21" fill="none" xmlns="http://www.w3.org/2000/svg">
<path d="M16.8656 6.10313L12.2719 1.50937C12.1406 1.37812 12.0094 1.3125 11.8125 1.3125H5.25C4.52812 1.3125 3.9375 1.90312 3.9375 2.625V18.375C3.9375 19.0969 4.52812 19.6875 5.25 19.6875H15.75C16.4719 19.6875 17.0625 19.0969 17.0625 18.375V6.5625C17.0625 6.36562 16.9969 6.23438 16.8656 6.10313ZM11.8125 2.8875L15.4875 6.5625H11.8125V2.8875ZM15.75 18.375H5.25V2.625H10.5V6.5625C10.5 7.28438 11.0906 7.875 11.8125 7.875H15.75V18.375Z" fill="black"/>
<path d="M6.5625 14.4375H14.4375V15.75H6.5625V14.4375ZM6.5625 10.5H14.4375V11.8125H6.5625V10.5Z" fill="black"/>
</svg>
