<svg width="29" height="34" viewBox="0 0 29 34" fill="none" xmlns="http://www.w3.org/2000/svg">
<path d="M19.3333 17.0001C18.3719 17.0001 17.4499 16.5523 16.77 15.7553C16.0902 14.9583 15.7083 13.8773 15.7083 12.7501V7.08341H6.04163C5.40069 7.08341 4.786 7.38193 4.33278 7.91328C3.87957 8.44463 3.62496 9.1653 3.62496 9.91675V25.5001C3.62496 26.2515 3.87957 26.9722 4.33278 27.5035C4.786 28.0349 5.40069 28.3334 6.04163 28.3334H21.75C22.3909 28.3334 23.0056 28.0349 23.4588 27.5035C23.912 26.9722 24.1666 26.2515 24.1666 25.5001V17.0001H19.3333ZM16.9166 12.7501C16.9166 13.5015 17.1712 14.2222 17.6245 14.7535C18.0777 15.2849 18.6924 15.5834 19.3333 15.5834H23.6664L16.9166 7.66991V12.7501ZM6.04163 5.66675H16.9166L25.375 15.5834V25.5001C25.375 26.6273 24.993 27.7083 24.3132 28.5053C23.6334 29.3023 22.7114 29.7501 21.75 29.7501H6.04163C5.08022 29.7501 4.15818 29.3023 3.47836 28.5053C2.79854 27.7083 2.41663 26.6273 2.41663 25.5001V9.91675C2.41663 8.78958 2.79854 7.70857 3.47836 6.91154C4.15818 6.11451 5.08022 5.66675 6.04163 5.66675ZM6.04163 11.3334H13.2916V12.7501H6.04163V11.3334ZM6.04163 17.0001H13.2916V18.4167H6.04163V17.0001ZM6.04163 22.6667H21.75V24.0834H6.04163V22.6667Z" fill="black"/>
</svg>
