<svg width="15" height="11" viewBox="0 0 15 11" fill="none" xmlns="http://www.w3.org/2000/svg">
<path d="M2.36842 0H12.6316C13.2597 0 13.8621 0.231785 14.3063 0.644365C14.7505 1.05695 15 1.61652 15 2.2V8.8C15 9.38348 14.7505 9.94306 14.3063 10.3556C13.8621 10.7682 13.2597 11 12.6316 11H2.36842C1.74028 11 1.13786 10.7682 0.693695 10.3556C0.249529 9.94306 0 9.38348 0 8.8V2.2C0 1.61652 0.249529 1.05695 0.693695 0.644365C1.13786 0.231785 1.74028 0 2.36842 0ZM2.36842 0.733333C1.98316 0.733333 1.62947 0.861667 1.35553 1.07507L7.5 4.78133L13.6445 1.07507C13.3607 0.853903 13.002 0.732882 12.6316 0.733333H2.36842ZM7.5 5.65547L0.895263 1.672C0.825226 1.84043 0.789359 2.01944 0.789474 2.2V8.8C0.789474 9.18898 0.955827 9.56204 1.25194 9.83709C1.54805 10.1121 1.94966 10.2667 2.36842 10.2667H12.6316C13.0503 10.2667 13.452 10.1121 13.7481 9.83709C14.0442 9.56204 14.2105 9.18898 14.2105 8.8V2.2C14.2105 2.01373 14.1734 1.83553 14.1047 1.672L7.5 5.65473V5.65547Z" fill="#4A4848"/>
</svg>
