<svg width="21" height="21" viewBox="0 0 21 21" fill="none" xmlns="http://www.w3.org/2000/svg">
<path d="M10.5 14.28C8.39997 14.28 6.71997 12.6 6.71997 10.5C6.71997 8.39997 8.39997 6.71997 10.5 6.71997C12.6 6.71997 14.28 8.39997 14.28 10.5C14.28 12.6 12.6 14.28 10.5 14.28ZM10.5 7.55997C8.86197 7.55997 7.55997 8.86197 7.55997 10.5C7.55997 12.138 8.86197 13.44 10.5 13.44C12.138 13.44 13.44 12.138 13.44 10.5C13.44 8.86197 12.138 7.55997 10.5 7.55997Z" fill="black"/>
<path d="M11.634 18.48H9.36602L8.73602 16.548C8.31602 16.422 7.89602 16.254 7.51802 16.044L5.67002 16.968L4.07402 15.372L4.99802 13.524C4.78802 13.146 4.62002 12.726 4.49402 12.306L2.52002 11.634V9.36602L4.45202 8.73602C4.57802 8.31602 4.74602 7.89602 4.95602 7.51802L4.03202 5.67002L5.62802 4.07402L7.47602 4.99802C7.85402 4.78802 8.27402 4.62002 8.69402 4.49402L9.36602 2.52002H11.634L12.264 4.45202C12.684 4.57802 13.104 4.74602 13.482 4.95602L15.33 4.03202L16.926 5.62802L16.002 7.47602C16.212 7.85402 16.38 8.27402 16.506 8.69402L18.438 9.32402V11.592L16.506 12.222C16.38 12.642 16.212 13.062 16.002 13.44L16.926 15.288L15.33 16.884L13.482 15.96C13.104 16.17 12.684 16.338 12.264 16.464L11.634 18.48ZM9.95402 17.64H11.046L11.634 15.834L11.844 15.792C12.348 15.666 12.81 15.456 13.272 15.204L13.482 15.078L15.162 15.918L15.918 15.162L15.078 13.482L15.204 13.272C15.456 12.852 15.666 12.348 15.792 11.844L15.834 11.634L17.64 11.046V9.95402L15.834 9.36602L15.792 9.15602C15.666 8.65202 15.456 8.19002 15.204 7.72802L15.078 7.51802L15.918 5.83802L15.162 5.08202L13.482 5.92202L13.272 5.79602C12.81 5.54402 12.348 5.33402 11.844 5.20802L11.634 5.16602L11.046 3.36002H9.95402L9.36602 5.16602L9.15602 5.20802C8.65202 5.33402 8.19002 5.54402 7.72802 5.79602L7.51802 5.92202L5.83802 5.08202L5.08202 5.83802L5.92202 7.51802L5.79602 7.72802C5.54402 8.14802 5.33402 8.65202 5.20802 9.15602L5.16602 9.36602L3.36002 9.95402V11.046L5.16602 11.634L5.20802 11.844C5.33402 12.348 5.54402 12.81 5.79602 13.272L5.92202 13.482L5.08202 15.162L5.83802 15.918L7.51802 15.078L7.72802 15.204C8.19002 15.456 8.65202 15.666 9.15602 15.792L9.36602 15.834L9.95402 17.64Z" fill="black"/>
</svg>
