<svg width="15" height="14" viewBox="0 0 15 14" fill="none" xmlns="http://www.w3.org/2000/svg">
<path d="M13.691 8.9735L12.3305 8.05975C12.559 7.26627 12.5577 6.4294 12.3267 5.63655L13.6917 4.73413L12.602 2.95338L11.084 3.6093C10.4704 3.02565 9.70215 2.60831 8.85946 2.40088L8.71471 0.833338H6.53521L6.39046 2.40088C5.54795 2.60859 4.77995 3.02618 4.16671 3.61L2.64796 2.95409L1.55896 4.73484L2.92396 5.63725C2.6929 6.42982 2.69135 7.26643 2.91946 8.05975L1.55896 8.9735L2.64796 10.7458L4.16671 10.0891C4.78004 10.6727 5.54803 11.09 6.39046 11.2975L6.53521 12.8651H8.71471L8.85946 11.2975C9.70188 11.09 10.4699 10.6727 11.0832 10.0891L12.602 10.7458L13.6917 8.97421L13.691 8.9735ZM9.12871 0.11438C9.22525 0.114284 9.31811 0.149353 9.38796 0.212288C9.45781 0.275224 9.49927 0.361176 9.50371 0.452255L9.63721 1.89371C10.1916 2.09326 10.7089 2.37492 11.1695 2.72813L12.557 2.11684C12.6427 2.07519 12.742 2.06631 12.8345 2.09203C12.9269 2.11775 13.0054 2.1761 13.0535 2.25496L14.5572 4.71288C14.6055 4.79167 14.6199 4.885 14.5972 4.9735C14.5746 5.06201 14.5168 5.13888 14.4357 5.18817L13.1802 6.01834C13.2762 6.58359 13.2732 7.14671 13.181 7.6893L14.4357 8.51805C14.517 8.56734 14.575 8.64435 14.5976 8.73302C14.6202 8.82169 14.6058 8.91519 14.5572 8.99405L13.0535 11.4428C13.0054 11.5216 12.9269 11.58 12.8345 11.6057C12.742 11.6314 12.6427 11.6225 12.557 11.5809L11.1695 10.9696C10.718 11.3167 10.2035 11.6 9.63721 11.8047L9.50371 13.2462C9.49908 13.3371 9.45754 13.4229 9.38771 13.4857C9.31788 13.5485 9.22513 13.5834 9.12871 13.5833H6.12121C6.0248 13.5834 5.93204 13.5485 5.86221 13.4857C5.79238 13.4229 5.75084 13.3371 5.74621 13.2462L5.61271 11.8047C5.05826 11.6049 4.54104 11.323 4.08046 10.9696L2.69296 11.5809C2.60728 11.6228 2.50778 11.6319 2.41517 11.6063C2.32256 11.5807 2.24396 11.5224 2.19571 11.4435L0.692712 8.99334C0.644396 8.91455 0.630062 8.82122 0.652686 8.73271C0.675311 8.64421 0.733156 8.56733 0.814212 8.51805L2.06896 7.68859C1.975 7.13514 1.975 6.57108 2.06896 6.01763L0.814962 5.18817C0.734104 5.1389 0.676398 5.06215 0.653782 4.97381C0.631167 4.88548 0.645373 4.79231 0.693462 4.71359L2.19496 2.25496C2.24308 2.17591 2.32163 2.11744 2.41425 2.09171C2.50688 2.06598 2.60644 2.07498 2.69221 2.11684L4.07971 2.72813C4.54032 2.37492 5.05754 2.09326 5.61196 1.89371L5.74546 0.452255C5.7499 0.361176 5.79136 0.275224 5.86121 0.212288C5.93107 0.149353 6.02392 0.114284 6.12046 0.11438H9.12796H9.12871ZM7.62496 4.375C8.32116 4.375 8.98883 4.6362 9.48112 5.10114C9.9734 5.56607 10.25 6.19666 10.25 6.85417C10.25 7.51169 9.9734 8.14227 9.48112 8.60721C8.98883 9.07214 8.32116 9.33334 7.62496 9.33334C6.92877 9.33334 6.26109 9.07214 5.76881 8.60721C5.27652 8.14227 4.99996 7.51169 4.99996 6.85417C4.99996 6.19666 5.27652 5.56607 5.76881 5.10114C6.26109 4.6362 6.92877 4.375 7.62496 4.375ZM7.62496 5.08334C7.12768 5.08334 6.65077 5.26991 6.29914 5.602C5.94751 5.9341 5.74996 6.38452 5.74996 6.85417C5.74996 7.32383 5.94751 7.77424 6.29914 8.10634C6.65077 8.43843 7.12768 8.625 7.62496 8.625C8.12224 8.625 8.59916 8.43843 8.95079 8.10634C9.30242 7.77424 9.49996 7.32383 9.49996 6.85417C9.49996 6.38452 9.30242 5.9341 8.95079 5.602C8.59916 5.26991 8.12224 5.08334 7.62496 5.08334Z" fill="#4A4848"/>
</svg>
