<svg id="Layer_1" data-name="Layer 1" xmlns="http://www.w3.org/2000/svg" viewBox="0 0 40 40">
  <title>GoogleIcon2</title>
  <path d="M43.61,20.08H42V20H24v8H35.3A12,12,0,1,1,32,15l5.66-5.66A20,20,0,1,0,44,24,20.28,20.28,0,0,0,43.61,20.08Z" transform="translate(-4 -4)" style="fill: #fbc02d"/>
  <path d="M6.31,14.69l6.57,4.82A12,12,0,0,1,32,15l5.66-5.66A20,20,0,0,0,6.31,14.69Z" transform="translate(-4 -4)" style="fill: #e53935"/>
  <path d="M24,44a19.93,19.93,0,0,0,13.41-5.19l-6.19-5.24a12,12,0,0,1-18.5-5.52l-6.52,5A20,20,0,0,0,24,44Z" transform="translate(-4 -4)" style="fill: #4caf50"/>
  <path d="M43.61,20.08V20H24v8H35.3a12,12,0,0,1-4.08,5.57h0l6.19,5.24A19.36,19.36,0,0,0,44,24,20.28,20.28,0,0,0,43.61,20.08Z" transform="translate(-4 -4)" style="fill: #1565c0"/>
</svg>
