<svg width="21" height="21" viewBox="0 0 21 21" fill="none" xmlns="http://www.w3.org/2000/svg">
<path d="M8.17248 5.57552L8.21623 5.6674L13.0812 18.3549C13.1436 18.5162 13.1403 18.6955 13.0719 18.8544C13.0035 19.0133 12.8755 19.139 12.7155 19.2045C12.5701 19.2617 12.4088 19.2637 12.262 19.21C12.1153 19.1563 11.9933 19.0507 11.9192 18.9131L11.8816 18.8326L10.6277 15.5628H4.42748L4.34523 15.5575L2.99248 18.8475C2.96092 18.9265 2.91393 18.9983 2.85424 19.0588C2.79456 19.1194 2.7234 19.1674 2.64492 19.2001C2.56644 19.2327 2.48223 19.2494 2.39722 19.2491C2.31221 19.2489 2.22811 19.2316 2.14986 19.1984C2.00529 19.1353 1.88812 19.0225 1.81958 18.8804C1.75103 18.7384 1.73566 18.5764 1.77623 18.424L1.80511 18.34L7.02361 5.65252C7.06825 5.5406 7.14364 5.44358 7.24107 5.37268C7.3385 5.30178 7.454 5.25988 7.57422 5.25183C7.69445 5.24378 7.81451 5.2699 7.92052 5.32718C8.02654 5.38445 8.11419 5.47055 8.17336 5.57552H8.17248ZM16.4027 1.75177C16.5616 1.75183 16.715 1.80951 16.8346 1.9141C16.9541 2.01869 17.0317 2.16309 17.0529 2.32052L17.059 2.40802V6.56252H18.5902C18.7489 6.56256 18.9023 6.62011 19.0218 6.72452C19.1413 6.82893 19.219 6.97313 19.2404 7.13039L19.2465 7.21965C19.2465 7.37823 19.189 7.53144 19.0848 7.65096C18.9806 7.77047 18.8366 7.8482 18.6795 7.86977L18.5894 7.87502L17.0581 7.87414V14.2179C17.0583 14.3766 17.001 14.5301 16.8967 14.6498C16.7925 14.7695 16.6484 14.8473 16.4911 14.8689L16.4019 14.875C16.2433 14.875 16.0901 14.8176 15.9705 14.7133C15.851 14.6091 15.7733 14.4651 15.7517 14.308L15.7456 14.2188V2.40889C15.7456 2.23485 15.8147 2.06793 15.9378 1.94486C16.0609 1.82179 16.2278 1.75264 16.4019 1.75264L16.4027 1.75177ZM7.70873 7.65452L4.94373 14.2503H10.29L7.70873 7.65364V7.65452ZM9.40361 1.75352H14.2144C14.3729 1.75353 14.5262 1.81096 14.6457 1.91519C14.7652 2.01943 14.8429 2.16341 14.8645 2.32052L14.8697 2.40977V5.03827C14.8697 7.08927 13.2072 8.75264 11.1554 8.75264C10.9813 8.75264 10.8144 8.6835 10.6913 8.56043C10.5682 8.43736 10.4991 8.27044 10.4991 8.09639C10.4991 7.92235 10.5682 7.75543 10.6913 7.63236C10.8144 7.50928 10.9813 7.44014 11.1554 7.44014C12.4329 7.44014 13.4776 6.44264 13.5529 5.18439L13.5572 5.03827V3.06514H9.40361C9.23734 3.06509 9.07728 3.00193 8.95579 2.88842C8.83429 2.77491 8.76042 2.61951 8.74908 2.45362C8.73775 2.28774 8.78981 2.12374 8.89473 1.99476C8.99966 1.86578 9.14964 1.78143 9.31436 1.75877L9.40361 1.75264H14.2144H9.40361V1.75352Z" fill="black"/>
</svg>
