<svg width="21" height="21" viewBox="0 0 21 21" fill="none" xmlns="http://www.w3.org/2000/svg">
<path d="M18.6666 3.5H2.33329C2.02387 3.5 1.72713 3.62292 1.50833 3.84171C1.28954 4.0605 1.16663 4.35725 1.16663 4.66667V16.3333C1.16663 16.6428 1.28954 16.9395 1.50833 17.1583C1.72713 17.3771 2.02387 17.5 2.33329 17.5H11.0833L11.4158 17.0917L11.9583 16.4267L11.9058 16.3333H2.33329V4.66667H18.6666V9.66C19.1098 9.94688 19.5037 10.3034 19.8333 10.7158V4.66667C19.8333 4.35725 19.7104 4.0605 19.4916 3.84171C19.2728 3.62292 18.976 3.5 18.6666 3.5V3.5Z" fill="black"/>
<path d="M4.08337 7H14V7.93333H4.08337V7Z" fill="black"/>
<path d="M4.08337 9.33337H10.5V10.2667H4.08337V9.33337Z" fill="black"/>
<path d="M4.08337 13.4166H9.91671V14.35H4.08337V13.4166Z" fill="black"/>
<path d="M16.0184 10.0508C15.2719 10.0448 14.541 10.2642 13.9212 10.6803C13.3014 11.0963 12.8215 11.6897 12.5443 12.3828C12.267 13.0759 12.2053 13.8365 12.3672 14.5653C12.5291 15.294 12.9071 15.9569 13.4517 16.4674L12.3201 17.8499L12.8451 19.9558L14.9801 17.3541C15.6559 17.5539 16.3751 17.5539 17.0509 17.3541L19.1859 19.9558L19.7109 17.8499L18.5792 16.4674C19.1239 15.9569 19.5018 15.294 19.6637 14.5653C19.8256 13.8365 19.7639 13.0759 19.4867 12.3828C19.2094 11.6897 18.7295 11.0963 18.1097 10.6803C17.4899 10.2642 16.759 10.0448 16.0126 10.0508H16.0184ZM16.0184 16.2808C15.5227 16.2739 15.0401 16.1206 14.6313 15.8402C14.2224 15.5597 13.9056 15.1647 13.7207 14.7047C13.5358 14.2448 13.4909 13.7404 13.5919 13.255C13.6928 12.7696 13.935 12.3249 14.2879 11.9768C14.6409 11.6287 15.0889 11.3927 15.5756 11.2985C16.0624 11.2043 16.5661 11.2561 17.0234 11.4474C17.4808 11.6386 17.8714 11.9609 18.1462 12.3735C18.4209 12.7862 18.5675 13.2709 18.5676 13.7666C18.5614 14.4376 18.2897 15.0788 17.812 15.5499C17.3343 16.0211 16.6894 16.2839 16.0184 16.2808V16.2808Z" fill="black"/>
</svg>
