<svg width="147" height="190" viewBox="0 0 147 190" fill="none" xmlns="http://www.w3.org/2000/svg">
<path opacity="0.43" d="M118.145 179.777C118.351 174.091 94.564 164.142 65.0174 157.556C35.4709 150.969 11.3529 150.238 11.1476 155.924C10.9422 161.61 34.7282 171.558 64.2747 178.145C93.8213 184.731 117.939 185.462 118.145 179.777Z" fill="#CFE5ED"/>
<path d="M91.0993 116.532C86.0316 114.686 81.9093 109.08 81.9093 104.036V18.4461C81.9093 13.4013 86.0316 10.8002 91.0993 12.6464L128.299 26.1987C133.367 28.0449 137.489 33.6502 137.489 38.6941V124.283C137.489 129.327 133.366 131.929 128.299 130.083L91.0993 116.532Z" fill="#D8EBF9"/>
<path d="M91.6973 119.359C86.3555 117.413 82.0098 111.504 82.0098 106.186V15.9617C82.0098 10.6438 86.3555 7.90174 91.6973 9.84734L130.911 24.1338C136.253 26.0794 140.598 31.9885 140.598 37.3064V127.531C140.598 132.848 136.252 135.591 130.911 133.645L91.6973 119.359Z" fill="#D8EBF9"/>
<path d="M91.0993 113.057C87.9567 111.913 85.4003 108.437 85.4003 105.308V19.7182C85.4003 16.59 87.9576 14.9762 91.1003 16.1217L128.3 29.674C131.442 30.8195 133.999 34.2958 133.999 37.4239V123.013C133.999 126.141 131.442 127.755 128.3 126.611L91.0993 113.057Z" fill="white"/>
<path opacity="0.25" d="M128.299 29.6731L91.0993 16.1208C88.8748 15.3108 86.9489 15.8876 86.0099 17.4001C87.0113 16.8984 88.3139 16.8441 89.7423 17.364L126.942 30.9163C130.085 32.0618 132.641 35.538 132.641 38.6661V124.255C132.641 125.169 132.418 125.949 132.03 126.574C133.234 125.971 133.998 124.719 133.998 123.012V37.4239C133.998 34.2949 131.441 30.8186 128.299 29.6731Z" fill="#35658D"/>
<path d="M123.537 27.2502L95.8621 17.1687L97.0923 20.4686C97.6514 21.9676 98.9314 23.274 100.347 23.7893L119.051 30.6035C120.467 31.1197 121.747 30.7463 122.306 29.6542L123.537 27.2502Z" fill="#246AB4"/>
<path d="M126.788 41.4372L92.61 28.986C90.7763 28.3179 89.29 29.2563 89.29 31.0808V46.4793C89.29 48.3046 90.7763 50.3253 92.61 50.9934L126.788 63.4454C128.621 64.1136 130.107 63.1751 130.107 61.3507V45.9513C130.108 44.1259 128.622 42.1053 126.788 41.4372Z" fill="#8AD1F4"/>
<path d="M126.788 68.512L92.61 56.0608C90.7763 55.3927 89.29 56.3311 89.29 58.1556V73.5541C89.29 75.3794 90.7763 77.4001 92.61 78.0682L126.788 90.5202C128.621 91.1884 130.107 90.2499 130.107 88.4255V73.0261C130.108 71.2007 128.622 69.1801 126.788 68.512Z" fill="#8AD1F4"/>
<path d="M126.788 95.8769L92.61 83.4258C90.7763 82.7577 89.29 83.6961 89.29 85.5206V100.919C89.29 102.744 90.7763 104.764 92.61 105.433L126.788 117.884C128.622 118.552 130.108 117.614 130.108 115.79V100.391C130.108 98.5657 128.622 96.5451 126.788 95.8769Z" fill="#8AD1F4"/>
<path d="M82.1689 165.458C82.1689 165.458 80.3886 164.819 80.1598 160.896H74.9564L74.4543 166.279L78.3351 169.519L81.713 167.831L82.1689 165.458Z" fill="#F1BF75"/>
<path d="M74.4543 166.279C74.4543 166.279 80.5261 168.287 82.1697 165.458C82.1697 165.458 93.3897 169.636 93.3083 170.881C93.1798 172.855 83.9039 173.26 81.8495 172.758L80.0692 170.978L79.2931 173.031H74.1802C74.1802 173.032 74.2263 166.599 74.4543 166.279Z" fill="#1F394C"/>
<path d="M62.7467 165.501C62.7467 165.501 60.9972 164.781 60.9502 160.85L55.7513 160.612L55.0023 165.967L58.7293 169.38L62.1813 167.85L62.7467 165.501Z" fill="#F1BF75"/>
<path d="M55.0024 165.967C55.0024 165.967 60.9756 168.25 62.7468 165.5C62.7468 165.5 72.5655 169.034 73.13 170.659C73.6945 172.283 64.1209 173.373 62.0919 172.778L60.3957 170.918L59.5264 172.934L54.4189 172.699C54.418 172.7 54.76 166.275 55.0024 165.967Z" fill="#1F394C"/>
<path d="M51.4916 103.865C51.4916 103.865 54.8694 117.552 55.6917 119.834C56.5131 122.115 58.2481 133.247 58.3395 133.612C58.4309 133.977 54.5048 162.63 54.5048 162.63C54.5048 162.63 59.8005 163.816 61.9001 162.447L67.6516 133.521L65.1865 105.051L51.4916 103.865Z" fill="#246AB4"/>
<path d="M52.2225 103.135C52.2225 103.135 57.4268 112.032 62.0828 116.001C66.7389 119.971 72.4913 130.646 72.4913 130.646L73.1761 162.401C75.4105 163.758 78.1958 163.829 80.4972 162.589L80.8464 162.401C80.8464 162.401 81.6678 129.415 81.5312 127.224C81.3946 125.034 69.7531 99.8495 69.7531 99.8495L52.2225 103.135Z" fill="#246AB4"/>
<path d="M72.3538 44.8266C72.3538 44.8266 68.2794 59.2043 61.7399 58.7876C56.011 58.4223 54.9453 52.4851 56.3303 45.1683C57.7677 37.5722 64.0449 38.5757 67.6968 38.5305C67.6968 38.5305 72.2162 38.5305 72.9698 35.0398C72.9707 35.0398 78.2428 42.2264 72.3538 44.8266Z" fill="#1F394C"/>
<path d="M61.9661 62.3542C61.9661 62.3542 53.9937 60.9411 50.3047 77.9497C48.756 85.0893 56.8786 96.291 56.8786 96.291L65.3693 79.9577L61.9661 62.3542Z" fill="#AAC6CE"/>
<path d="M95.4305 52.6967C95.4305 52.6967 98.4438 44.4161 98.4438 42.1577C98.4438 39.8993 100.155 41.8838 100.087 43.5952C100.018 45.3058 99.6072 47.2224 99.6072 47.2224C99.6072 47.2224 101.936 47.4277 101.936 48.5225C101.936 49.6174 101.182 53.4498 100.087 54.0664L95.4305 52.6967Z" fill="#F1BF75"/>
<path d="M66.3969 63.5105C71.6916 66.2328 83.0364 73.3651 85.639 71.038C88.2416 68.7109 95.4314 52.6967 95.4314 52.6967L100.088 54.0655C100.088 54.0655 90.1358 80.7552 87.1913 80.6874C84.2468 80.6195 74.2264 78.6803 74.2264 78.6803C74.2264 78.6803 73.3127 97.5233 70.5735 102.725C70.5735 102.725 57.0839 107.584 50.0994 103.614C50.0994 103.614 55.85 96.2305 54.3447 85.3416C52.7698 73.9465 55.8174 58.0688 66.3969 63.5105Z" fill="#CFE5ED"/>
<path d="M72.3538 44.8266C72.3538 44.8266 72.8333 47.359 73.5868 48.5216C74.3404 49.6852 75.9832 50.8487 75.9832 50.8487L74.6823 52.4915C74.6823 52.4915 75.6412 58.2397 69.5468 59.3354L68.9308 65.0158L62.0141 62.6887L61.74 58.7885C61.74 58.7885 62.8699 57.5905 62.9386 56.3248C62.9386 56.3248 61.569 54.9904 62.0141 53.4164C62.4592 51.8423 63.8631 50.6444 64.5135 51.2267C65.164 51.8089 65.2318 52.9715 65.2318 52.9715H66.1219C66.1219 52.9715 65.9655 50.3669 66.4983 49.2765C67.2183 47.8038 69.0674 45.5797 72.3538 44.8266Z" fill="#EA9249"/>
<path d="M68.9308 65.0158L69.5469 59.3354C75.6412 58.2406 74.6824 52.4915 74.6824 52.4915L75.9832 50.8487C75.9832 50.8487 74.3395 49.6852 73.5869 48.5216C72.8333 47.3581 72.3539 44.8266 72.3539 44.8266C72.0762 44.8899 71.8247 44.9776 71.5669 45.0608C72.002 46.2587 72.6216 48.2305 72.7646 50.092C72.9907 53.0303 72.5258 56.351 68.4107 58.8509C67.0157 59.6989 66.511 61.9989 66.3572 64.1506L68.9308 65.0158Z" fill="#F1BF75"/>
</svg>
