<svg width="42" height="42" viewBox="0 0 42 42" fill="none" xmlns="http://www.w3.org/2000/svg">
<path d="M16.6249 8.75C18.8011 8.74995 20.9317 9.37417 22.7638 10.5486C24.5959 11.723 26.0527 13.3983 26.9613 15.3758C27.8699 17.3533 28.1922 19.5499 27.8899 21.705C27.5876 23.8601 26.6735 25.8833 25.2559 27.5345L33.1329 35.4115L31.8957 36.6488L24.0169 28.77C22.6237 29.9614 20.9631 30.7985 19.1767 31.2099C17.3903 31.6213 15.5309 31.5948 13.7569 31.1327C11.9829 30.6707 10.3468 29.7867 8.98809 28.5561C7.62934 27.3255 6.58815 25.7847 5.95318 24.065C5.31821 22.3453 5.10828 20.4976 5.34127 18.6793C5.57426 16.861 6.24327 15.1259 7.29132 13.6218C8.33937 12.1178 9.7354 10.8893 11.3605 10.041C12.9856 9.19278 14.7917 8.74986 16.6249 8.75ZM16.6249 10.5C14.0722 10.5 11.624 11.5141 9.819 13.3191C8.01396 15.1241 6.9999 17.5723 6.9999 20.125C6.9999 22.6777 8.01396 25.1259 9.819 26.9309C11.624 28.7359 14.0722 29.75 16.6249 29.75C19.1776 29.75 21.6258 28.7359 23.4308 26.9309C25.2358 25.1259 26.2499 22.6777 26.2499 20.125C26.2499 17.5723 25.2358 15.1241 23.4308 13.3191C21.6258 11.5141 19.1776 10.5 16.6249 10.5Z" fill="white"/>
</svg>
