<svg width="8" height="14" viewBox="0 0 8 14" fill="none" xmlns="http://www.w3.org/2000/svg">
<path d="M3.70829 0.166748H4.49996V1.758C7.10454 1.86962 7.66663 3.09196 7.66663 4.12508H6.87496C6.87496 3.07454 5.94238 2.54175 4.10413 2.54175C3.45496 2.54175 1.33329 2.67079 1.33329 4.32221C1.33329 5.01254 1.33329 5.79471 4.19992 6.51196L5.47133 6.89591C7.47663 7.63612 7.66663 8.53625 7.66663 9.46962C7.66663 10.9587 6.46488 11.9182 4.49996 12.0307V13.6251H3.70829V12.0338C1.10371 11.9222 0.541626 10.6999 0.541626 9.66675H1.33329C1.33329 10.7173 2.26588 11.2501 4.10413 11.2501C4.75329 11.2501 6.87496 11.121 6.87496 9.46962C6.87496 8.77929 6.87496 7.99712 4.00833 7.27987L2.73692 6.89591C0.731626 6.15571 0.541626 5.25558 0.541626 4.32221C0.541626 2.83308 1.74338 1.87358 3.70829 1.76116V0.166748Z" fill="#4A4848"/>
</svg>
