<svg width="20" height="20" viewBox="0 0 20 20" fill="none" xmlns="http://www.w3.org/2000/svg">
<path d="M13.3334 6.66667C13.9964 6.66667 14.6323 6.93006 15.1011 7.3989C15.57 7.86774 15.8334 8.50363 15.8334 9.16667V15.8333C15.8334 16.4964 15.57 17.1323 15.1011 17.6011C14.6323 18.0699 13.9964 18.3333 13.3334 18.3333H5.83337C5.17033 18.3333 4.53445 18.0699 4.06561 17.6011C3.59677 17.1323 3.33337 16.4964 3.33337 15.8333V9.16667C3.33337 8.50363 3.59677 7.86774 4.06561 7.3989C4.53445 6.93006 5.17033 6.66667 5.83337 6.66667V5.41667C5.83337 4.42211 6.22846 3.46828 6.93172 2.76502C7.63498 2.06176 8.58881 1.66667 9.58337 1.66667C10.5779 1.66667 11.5318 2.06176 12.235 2.76502C12.9383 3.46828 13.3334 4.42211 13.3334 5.41667V6.66667ZM5.83337 7.5C5.39135 7.5 4.96742 7.6756 4.65486 7.98816C4.3423 8.30072 4.16671 8.72464 4.16671 9.16667V15.8333C4.16671 16.2754 4.3423 16.6993 4.65486 17.0118C4.96742 17.3244 5.39135 17.5 5.83337 17.5H13.3334C13.7754 17.5 14.1993 17.3244 14.5119 17.0118C14.8244 16.6993 15 16.2754 15 15.8333V9.16667C15 8.72464 14.8244 8.30072 14.5119 7.98816C14.1993 7.6756 13.7754 7.5 13.3334 7.5H5.83337ZM12.5 6.66667V5.41667C12.5 4.64312 12.1927 3.90125 11.6458 3.35427C11.0988 2.80729 10.3569 2.5 9.58337 2.5C8.80983 2.5 8.06796 2.80729 7.52098 3.35427C6.974 3.90125 6.66671 4.64312 6.66671 5.41667V6.66667H12.5ZM9.58337 11.6667C9.25185 11.6667 8.93391 11.7984 8.69949 12.0328C8.46507 12.2672 8.33337 12.5851 8.33337 12.9167C8.33337 13.2482 8.46507 13.5661 8.69949 13.8006C8.93391 14.035 9.25185 14.1667 9.58337 14.1667C9.91489 14.1667 10.2328 14.035 10.4673 13.8006C10.7017 13.5661 10.8334 13.2482 10.8334 12.9167C10.8334 12.5851 10.7017 12.2672 10.4673 12.0328C10.2328 11.7984 9.91489 11.6667 9.58337 11.6667ZM9.58337 10.8333C10.1359 10.8333 10.6658 11.0528 11.0565 11.4435C11.4472 11.8342 11.6667 12.3641 11.6667 12.9167C11.6667 13.4692 11.4472 13.9991 11.0565 14.3898C10.6658 14.7805 10.1359 15 9.58337 15C9.03084 15 8.50094 14.7805 8.11023 14.3898C7.71953 13.9991 7.50004 13.4692 7.50004 12.9167C7.50004 12.3641 7.71953 11.8342 8.11023 11.4435C8.50094 11.0528 9.03084 10.8333 9.58337 10.8333Z" fill="#4A4848"/>
</svg>
