<svg width="21" height="21" viewBox="0 0 21 21" fill="none" xmlns="http://www.w3.org/2000/svg">
<path d="M17.0625 19.25C17.7861 19.25 18.375 18.6611 18.375 17.9375V14.875C18.375 14.1514 17.7861 13.5625 17.0625 13.5625C16.0387 13.5625 15.0325 13.4015 14.07 13.0839C13.8399 13.0112 13.5944 13.0024 13.3597 13.0583C13.125 13.1143 12.9099 13.2329 12.7374 13.4015L11.4774 14.6615C9.29959 13.4792 7.51103 11.6913 6.328 9.51388L7.5775 8.2565C7.938 7.92225 8.0675 7.41388 7.9135 6.92475C7.59652 5.96076 7.43582 4.95226 7.4375 3.9375C7.4375 3.21388 6.84863 2.625 6.125 2.625H3.0625C2.33887 2.625 1.75 3.21388 1.75 3.9375C1.75 12.3813 8.61875 19.25 17.0625 19.25ZM3.0625 3.5H6.125C6.24103 3.5 6.35231 3.54609 6.43436 3.62814C6.51641 3.71019 6.5625 3.82147 6.5625 3.9375C6.5625 5.05488 6.7375 6.15213 7.08138 7.1925C7.10664 7.268 7.10959 7.34918 7.08988 7.42631C7.07017 7.50344 7.02864 7.57326 6.97025 7.62738L5.25875 9.34763C6.69113 12.1721 8.80687 14.2879 11.6445 15.7325L13.3499 14.0263C13.4081 13.9687 13.4808 13.928 13.5603 13.9086C13.6399 13.8891 13.7232 13.8917 13.8014 13.916C14.8479 14.2625 15.9451 14.4375 17.0625 14.4375C17.3031 14.4375 17.5 14.6344 17.5 14.875V17.9375C17.5 18.1781 17.3031 18.375 17.0625 18.375C9.10175 18.375 2.625 11.8983 2.625 3.9375C2.625 3.82147 2.67109 3.71019 2.75314 3.62814C2.83519 3.54609 2.94647 3.5 3.0625 3.5Z" fill="#4A4848"/>
</svg>
