<svg width="34" height="34" viewBox="0 0 34 34" fill="none" xmlns="http://www.w3.org/2000/svg">
<path d="M8.5 5.66675H23.4968L28.3333 10.5032V25.5001C28.3333 26.6273 27.8856 27.7083 27.0885 28.5053C26.2915 29.3023 25.2105 29.7501 24.0833 29.7501H8.5C7.37283 29.7501 6.29183 29.3023 5.4948 28.5053C4.69777 27.7083 4.25 26.6273 4.25 25.5001V9.91675C4.25 8.78958 4.69777 7.70857 5.4948 6.91154C6.29183 6.11451 7.37283 5.66675 8.5 5.66675ZM8.5 7.08341C7.74855 7.08341 7.02788 7.38193 6.49653 7.91328C5.96518 8.44463 5.66667 9.1653 5.66667 9.91675V25.5001C5.66667 26.2515 5.96518 26.9722 6.49653 27.5035C7.02788 28.0349 7.74855 28.3334 8.5 28.3334H24.0833C24.8348 28.3334 25.5554 28.0349 26.0868 27.5035C26.6182 26.9722 26.9167 26.2515 26.9167 25.5001V11.2116L22.7885 7.08341H21.25V14.1667H8.5V7.08341ZM9.91667 7.08341V12.7501H19.8333V7.08341H9.91667ZM17 17.0001C18.1272 17.0001 19.2082 17.4478 20.0052 18.2449C20.8022 19.0419 21.25 20.1229 21.25 21.2501C21.25 22.3773 20.8022 23.4583 20.0052 24.2553C19.2082 25.0523 18.1272 25.5001 17 25.5001C15.8728 25.5001 14.7918 25.0523 13.9948 24.2553C13.1978 23.4583 12.75 22.3773 12.75 21.2501C12.75 20.1229 13.1978 19.0419 13.9948 18.2449C14.7918 17.4478 15.8728 17.0001 17 17.0001ZM17 18.4167C16.2486 18.4167 15.5279 18.7153 14.9965 19.2466C14.4652 19.778 14.1667 20.4986 14.1667 21.2501C14.1667 22.0015 14.4652 22.7222 14.9965 23.2535C15.5279 23.7849 16.2486 24.0834 17 24.0834C17.7514 24.0834 18.4721 23.7849 19.0035 23.2535C19.5348 22.7222 19.8333 22.0015 19.8333 21.2501C19.8333 20.4986 19.5348 19.778 19.0035 19.2466C18.4721 18.7153 17.7514 18.4167 17 18.4167Z" fill="#585858"/>
</svg>
