<svg width="15" height="16" viewBox="0 0 15 16" fill="none" xmlns="http://www.w3.org/2000/svg">
<g clip-path="url(#clip0_337_91)">
<path d="M6.80412 2.60417C7.70667 2.60334 8.5892 2.87023 9.34004 3.37106C10.0909 3.87189 10.6763 4.58417 11.0223 5.41778C11.3683 6.2514 11.4592 7.1689 11.2836 8.05421C11.1081 8.93952 10.6738 9.75287 10.0359 10.3914C9.39802 11.0299 8.58507 11.4648 7.69992 11.6412C6.81477 11.8176 5.89719 11.7275 5.06326 11.3823C4.22933 11.0371 3.51652 10.4523 3.015 9.70189C2.51348 8.9515 2.24579 8.06922 2.24579 7.16667C2.25126 5.95902 2.73314 4.80234 3.58669 3.94801C4.44024 3.09367 5.59648 2.61074 6.80412 2.60417ZM6.80412 1.75C5.7328 1.75 4.68555 2.06768 3.79478 2.66287C2.90402 3.25806 2.20975 4.10403 1.79977 5.0938C1.3898 6.08356 1.28253 7.17268 1.49153 8.22341C1.70054 9.27414 2.21642 10.2393 2.97396 10.9968C3.73149 11.7544 4.69665 12.2703 5.74738 12.4793C6.79811 12.6883 7.88722 12.581 8.87699 12.171C9.86676 11.761 10.7127 11.0668 11.3079 10.176C11.9031 9.28524 12.2208 8.23798 12.2208 7.16667C12.2208 5.73008 11.6501 4.35233 10.6343 3.33651C9.61846 2.32068 8.24071 1.75 6.80412 1.75Z" fill="black"/>
<path d="M14.5833 14.3708L11.5124 11.2792L10.9208 11.8667L13.9916 14.9583C14.0302 14.9972 14.076 15.0281 14.1265 15.0492C14.177 15.0703 14.2312 15.0813 14.286 15.0815C14.3407 15.0817 14.395 15.0711 14.4456 15.0503C14.4963 15.0295 14.5423 14.999 14.5812 14.9604C14.62 14.9218 14.6509 14.876 14.672 14.8255C14.6932 14.775 14.7041 14.7208 14.7043 14.6661C14.7045 14.6113 14.6939 14.5571 14.6732 14.5064C14.6524 14.4558 14.6219 14.4097 14.5833 14.3708Z" fill="black"/>
</g>
<defs>
<clipPath id="clip0_337_91">
<rect width="15" height="15" fill="white" transform="translate(0 0.5)"/>
</clipPath>
</defs>
</svg>
