<svg width="19" height="19" viewBox="0 0 19 19" fill="none" xmlns="http://www.w3.org/2000/svg">
<path d="M2.375 7.91667V15.0417C2.375 15.4616 2.54181 15.8643 2.83875 16.1613C3.13568 16.4582 3.53841 16.625 3.95833 16.625H15.0417C15.4616 16.625 15.8643 16.4582 16.1613 16.1613C16.4582 15.8643 16.625 15.4616 16.625 15.0417V7.91667" stroke="black" stroke-width="0.9375"/>
<path d="M11.7428 16.625V11.875C11.7428 11.4551 11.576 11.0524 11.2791 10.7554C10.9821 10.4585 10.5794 10.2917 10.1595 10.2917H8.57613C8.15621 10.2917 7.75348 10.4585 7.45655 10.7554C7.15961 11.0524 6.9928 11.4551 6.9928 11.875V16.625" stroke="black" stroke-width="0.9375" stroke-miterlimit="16"/>
<path d="M17.2726 7.41317L15.9315 2.71937C15.9032 2.62014 15.8432 2.53285 15.7608 2.47071C15.6784 2.40858 15.578 2.37498 15.4747 2.375H12.2709L12.6469 6.89067C12.6526 6.96328 12.6755 7.03348 12.7138 7.09544C12.7521 7.15741 12.8046 7.20934 12.867 7.24692C13.1757 7.43137 13.779 7.77179 14.25 7.91667C15.0544 8.16446 16.2292 8.075 16.899 7.99267C16.9641 7.98425 17.0266 7.96173 17.0821 7.92667C17.1376 7.89161 17.1848 7.84486 17.2203 7.78968C17.2559 7.7345 17.279 7.67223 17.2881 7.6072C17.2971 7.54217 17.2918 7.47595 17.2726 7.41317Z" stroke="black" stroke-width="0.9375"/>
<path d="M11.0833 7.91667C11.533 7.77813 12.103 7.46225 12.4212 7.27383C12.4954 7.22968 12.5556 7.16544 12.5948 7.08853C12.634 7.01162 12.6507 6.92519 12.6429 6.83921L12.2708 2.375H6.72913L6.35705 6.83921C6.34908 6.92531 6.36567 7.01192 6.4049 7.08898C6.44414 7.16604 6.5044 7.23041 6.57872 7.27463C6.89697 7.46225 7.46697 7.77813 7.91663 7.91667C9.09859 8.28083 9.90134 8.28083 11.0833 7.91667V7.91667Z" stroke="black" stroke-width="0.9375"/>
<path d="M3.06848 2.71937L1.7274 7.41396C1.70847 7.47664 1.70341 7.5427 1.71257 7.60753C1.72173 7.67237 1.74489 7.73444 1.78044 7.78942C1.81599 7.84441 1.86309 7.891 1.91845 7.92596C1.97382 7.96092 2.03613 7.98341 2.10106 7.99188C2.77002 8.075 3.94565 8.16367 4.74998 7.91667C5.22102 7.77179 5.82506 7.43138 6.13302 7.24771C6.19551 7.21005 6.2481 7.158 6.28638 7.09589C6.32466 7.03378 6.34754 6.96342 6.3531 6.89067L6.72915 2.375H3.52527C3.42206 2.37498 3.32164 2.40858 3.23922 2.47071C3.1568 2.53285 3.09686 2.62014 3.06848 2.71937V2.71937Z" stroke="black" stroke-width="0.9375"/>
</svg>
