<svg width="166" height="171" viewBox="0 0 166 171" fill="none" xmlns="http://www.w3.org/2000/svg">
<path opacity="0.43" d="M71.304 160.604C106.961 160.604 135.867 159.163 135.867 157.386C135.867 155.61 106.961 154.169 71.304 154.169C35.6465 154.169 6.74048 155.61 6.74048 157.386C6.74048 159.163 35.6465 160.604 71.304 160.604Z" fill="#CFE5ED"/>
<path d="M62.1941 145.372L62.6779 148.403L60.3968 151.393L54.4694 148.604L53.7933 145.833L61.1078 144.631L62.1941 145.372Z" fill="#F1BF75"/>
<path d="M57.5766 155.212L56.9585 154.47C56.8453 154.335 56.6356 154.335 56.5225 154.47L55.9218 155.191C55.679 155.482 55.3175 155.651 54.9376 155.65L41.2543 155.604C40.9894 155.342 40.9149 154.887 41.2166 154.575C43.1933 152.534 53.9368 148.903 54.4703 148.603C55.0038 148.302 58.3391 150.81 62.6789 148.402C62.6789 148.402 63.434 151.803 63.5665 154.011C63.6208 154.912 62.9162 155.677 62.0092 155.673L58.5369 155.661C58.1653 155.662 57.8139 155.497 57.5766 155.212Z" fill="#1F394C"/>
<path d="M84.1209 145.495L84.6047 148.527L82.3226 151.515L76.3962 148.726L75.7201 145.956L83.0336 144.754L84.1209 145.495Z" fill="#F1BF75"/>
<path d="M79.5033 155.335L78.8842 154.593C78.7711 154.458 78.5614 154.458 78.4482 154.594L77.8476 155.314C77.6048 155.606 77.2442 155.775 76.8634 155.773L63.18 155.727C62.9151 155.465 62.8406 155.01 63.1423 154.698C65.119 152.656 75.8626 149.026 76.3961 148.726C76.9287 148.424 80.264 150.933 84.6046 148.526C84.6046 148.526 85.3598 151.925 85.4923 154.133C85.5475 155.035 84.8429 155.799 83.9359 155.797L80.4636 155.785C80.091 155.784 79.7397 155.62 79.5033 155.335Z" fill="#1F394C"/>
<path d="M52.5672 47.3485L48.4022 63.1775L37.0653 55.6449L31.9364 59.6992L46.7382 73.4941L57.3834 63.661L52.5672 47.3485Z" fill="#CFE5ED"/>
<path d="M37.0478 55.6486L33.7493 49.1664C33.3897 48.4741 32.5195 48.2259 31.8462 48.6234C30.0167 49.7031 29.0711 51.8223 29.5182 53.892C29.9652 55.9627 30.7213 58.4107 31.9364 59.6983L37.0478 55.6486Z" fill="#F1BF75"/>
<path d="M32.9703 43.1367L29.3526 42.8437C28.8283 42.8015 28.4926 43.1376 28.6075 43.59L31.1729 53.7098C31.2879 54.1631 31.8113 54.5688 32.3365 54.611L35.9542 54.904C36.7967 54.9727 37.2833 56.4591 36.7002 54.1576L34.1348 44.0379C34.0189 43.5855 33.4955 43.1798 32.9703 43.1367Z" fill="#1F394C"/>
<path d="M37.0626 55.6751L37.8205 53.2711C38.1406 52.6603 37.9548 51.9065 37.3854 51.5137L36.129 50.6455C35.7537 50.3863 35.2432 50.4495 34.9424 50.792C34.603 51.1785 34.6609 51.7701 35.0684 52.0851L35.647 52.5311L36.2375 52.9744L34.8366 55.0798L37.0626 55.6751Z" fill="#F1BF75"/>
<path d="M84.8522 146.201C84.8522 142.664 80.7258 83.7906 80.7258 83.7906C80.7258 83.7906 72.3922 75.7141 67.8584 76.5694C63.3236 75.7141 53.0133 81.7017 53.0133 81.7017C53.0133 81.7017 53.2285 142.663 53.2285 146.201H63.0495C63.0495 146.201 63.1176 118.132 66.9459 97.8603C67.117 96.9555 68.5096 96.8657 68.6807 97.7715C72.509 118.042 75.0312 146.201 75.0312 146.201H84.8522Z" fill="#246AB4"/>
<path d="M68.046 37.7847C68.046 37.7847 79.6404 40.6091 81.2446 42.4517C82.8478 44.2943 88.8764 55.7768 88.7687 59.6452C88.6418 64.1748 80.8454 73.8412 80.998 73.2771V86.9182C80.998 86.9182 63.2362 92.4442 52.5055 85.6901C52.5055 85.6901 51.2757 50.6556 52.752 46.7505C53.2055 45.5508 59.0427 40.4873 60.7692 39.8737C62.4958 39.2601 68.046 37.7847 68.046 37.7847Z" fill="#CFE5ED"/>
<path d="M88.7668 59.6443C88.6555 63.6821 82.4394 71.8099 81.2068 73.1177C81.2031 73.1214 81.2031 73.1214 81.1994 73.1251C81.0651 73.224 80.9952 73.2762 80.9952 73.2762L77.0805 76.7764L72.3627 72.5399C72.3627 72.5399 81.0587 66.3691 79.8556 58.4473C79.0084 52.8737 73.1951 42.8812 73.1951 42.8812C71.1973 41.7575 69.2399 39.7162 67.7258 37.8699C67.9291 37.8149 68.0441 37.7856 68.0441 37.7856C68.0441 37.7856 79.6403 40.6082 81.2436 42.4499C82.8459 44.2925 88.8735 55.7759 88.7668 59.6443Z" fill="#CFE5ED"/>
<path d="M68.6623 31.3676V39.565C68.6623 39.565 65.9792 47.7625 59.7814 41.3152L59.2258 34.7753L68.6623 31.3676Z" fill="#EA9249"/>
<path d="M52.5653 24.9514C52.5653 24.9514 42.0812 22.7406 48.5567 13.8371C48.5567 13.8371 49.667 18.5654 55.3404 14.5129C58.2324 12.4478 62.5215 11.9303 67.3055 14.5129C72.4244 17.2759 74.2125 25.75 69.8341 30.1706L61.2623 28.4516L52.5653 24.9514Z" fill="#1F394C"/>
<path d="M52.5653 24.9514C52.5653 24.9514 51.3318 39.1355 60.7674 38.2151C68.137 37.4953 67.8593 31.9519 67.8593 31.9519C67.8593 31.9519 70.2646 31.461 70.3879 29.3116C70.5111 27.1622 69.8323 25.3809 67.6744 26.794C67.6744 26.794 63.8507 24.3378 63.6041 22.6179C63.6051 22.6179 59.1034 25.0741 52.5653 24.9514Z" fill="#F1BF75"/>
<path d="M65.0033 85.9034C64.5277 86.4877 64.6933 87.42 65.3905 87.9823L66.9901 89.2727C67.6873 89.835 68.6375 89.803 69.113 89.2178L74.1353 82.9921L69.331 79.3123L64.1073 82.9866C63.7422 83.2476 63.744 83.7998 64.1239 84.0407C64.3456 84.1817 64.6335 84.2742 64.9895 84.2183C65.9746 84.0654 66.3756 83.5132 66.3756 83.5132L65.0033 85.9034Z" fill="#F5BA8E"/>
<path d="M68.4231 79.3728L74.0322 83.8676C74.0322 83.8676 89.2691 67.0844 89.3317 60.6691C89.3666 57.0608 84.9652 48.3724 82.2076 43.6853H72.3342C72.3342 43.6853 79.3782 54.2428 81.5049 59.3082C81.9077 60.2707 81.7891 61.3688 81.1958 62.2287C78.624 65.9616 71.0244 76.8827 68.4231 79.3728Z" fill="#CFE5ED"/>
<path d="M82.2076 43.6853C82.2076 43.6853 87.8351 57.5782 87.8084 60.365C87.7542 65.8892 75.5794 79.0266 72.4391 82.5919L74.0322 83.8685C74.0322 83.8685 89.2691 67.0853 89.3317 60.67C89.3666 57.0608 84.9653 48.3724 82.2076 43.6853Z" fill="#B4CCD3"/>
<path d="M56.7128 36.1463C55.7065 35.0876 55.563 33.1983 55.563 33.1983C55.563 33.1983 54.4418 33.1983 54.2983 33.0554C54.1548 32.9125 54.6432 28.991 54.5567 28.3042C54.496 27.8206 54.2403 25.9285 54.0968 24.8983C53.4539 24.9367 53.257 24.9633 52.5653 24.9505C52.5653 24.9505 51.3318 39.1346 60.7674 38.2142C58.4706 38.2508 57.7191 37.205 56.7128 36.1463Z" fill="#EA9249"/>
<path d="M38.486 29.433C37.5855 24.5109 32.8047 21.2386 27.8054 22.1242C22.806 23.0109 19.483 27.7189 20.3834 32.642C21.268 37.484 25.9095 40.7262 30.8191 39.9882L32.7065 42.1275L33.095 39.3458C36.9237 37.7127 39.2566 33.6524 38.486 29.433Z" fill="#246AB4"/>
<path d="M131.262 116.309C134.161 113.25 134.88 109.234 132.863 107.341C130.849 105.448 126.863 106.392 123.963 109.451C121.063 112.511 118.998 117.948 121.012 119.842C123.029 121.736 128.362 119.369 131.262 116.309Z" fill="#E4F2FC"/>
<path opacity="0.26" d="M132.863 107.341C132.238 106.753 131.423 106.441 130.509 106.377C130.604 106.449 130.702 106.52 130.791 106.604C132.806 108.497 132.089 112.512 129.189 115.572C127.007 117.874 123.449 119.782 120.963 119.78C120.981 119.8 120.994 119.823 121.013 119.841C123.029 121.735 128.362 119.368 131.263 116.309C134.161 113.25 134.88 109.234 132.863 107.341Z" fill="#0F2A3F"/>
<path d="M116.517 104.532C116.905 100.404 115.147 96.8657 112.589 96.6276C110.031 96.3895 107.644 99.5417 107.256 103.668C106.868 107.796 108.447 113.252 111.004 113.491C113.562 113.73 116.13 108.658 116.517 104.532Z" fill="#6EB7E5"/>
<path opacity="0.25" d="M112.589 96.6276C112.111 96.5827 111.64 96.6569 111.188 96.8337C113.285 97.6707 114.637 100.865 114.292 104.532C113.971 107.948 112.154 112.003 110.088 113.165C110.376 113.348 110.683 113.461 111.005 113.49C113.562 113.73 116.13 108.659 116.517 104.532C116.905 100.404 115.147 96.8657 112.589 96.6276Z" fill="#35658D"/>
<path d="M104.069 101.361C102.295 97.885 99.1112 95.9508 96.9588 97.0397C94.8046 98.1286 94.4955 101.829 96.2699 105.306C98.0433 108.781 102.051 112.331 104.204 111.241C106.358 110.152 105.842 104.837 104.069 101.361Z" fill="#E4F2FC"/>
<path d="M104.069 101.361C102.295 97.885 99.1113 95.9508 96.9589 97.0397C96.1347 97.4573 95.5828 98.2587 95.3124 99.2807C95.5092 99.0939 95.7263 98.9318 95.9719 98.8072C98.1261 97.7183 101.31 99.6535 103.082 103.129C104.328 105.569 104.947 108.911 104.465 111.065C106.303 109.683 105.764 104.686 104.069 101.361Z" fill="#E4F2FC"/>
<path d="M100.643 115.887C97.2247 114.362 93.7358 114.723 92.849 116.693C91.9633 118.662 94.0163 121.496 97.4344 123.02C100.852 124.543 105.93 124.891 106.816 122.922C107.703 120.952 104.062 117.412 100.643 115.887Z" fill="#6EB7E5"/>
<path opacity="0.25" d="M100.643 115.887C97.2247 114.362 93.7358 114.723 92.8491 116.693C92.6421 117.153 92.6016 117.662 92.6955 118.189C93.6392 116.29 97.0747 115.956 100.446 117.46C103.196 118.686 106.088 121.218 106.651 123.186C106.713 123.102 106.774 123.017 106.817 122.922C107.703 120.952 104.062 117.412 100.643 115.887Z" fill="#35658D"/>
<path d="M132.199 127.899C135.612 126.689 137.732 123.901 136.934 121.672C136.137 119.443 132.724 118.619 129.312 119.828C125.898 121.039 122.192 124.389 122.99 126.617C123.786 128.846 128.787 129.11 132.199 127.899Z" fill="#E4F2FC"/>
<path opacity="0.26" d="M136.934 121.672C136.592 120.717 135.767 120.021 134.67 119.631C135.07 119.979 135.377 120.397 135.552 120.887C136.349 123.115 134.229 125.903 130.817 127.112C128.509 127.932 125.478 128.073 123.51 127.391C125.072 128.888 129.234 128.95 132.199 127.899C135.612 126.689 137.731 123.901 136.934 121.672Z" fill="#0F2A3F"/>
<path d="M114.447 140.146C115.237 130.472 119.486 121.687 126.575 115.022C126.853 114.761 126.434 114.345 126.157 114.605C118.953 121.378 114.658 130.314 113.854 140.146C113.823 140.524 114.415 140.522 114.447 140.146Z" fill="#1F394C"/>
<path d="M112.291 138.77C112.534 126.844 108.773 115.404 101.477 105.939C101.249 105.642 100.734 105.935 100.966 106.235C108.2 115.623 111.94 126.938 111.699 138.769C111.692 139.149 112.283 139.149 112.291 138.77Z" fill="#1F394C"/>
<path d="M109.789 121.454C111.403 116.333 111.816 110.895 112.014 105.558C112.027 105.178 111.435 105.179 111.421 105.558C111.225 110.847 110.817 116.223 109.217 121.299C109.103 121.661 109.675 121.816 109.789 121.454Z" fill="#1F394C"/>
<path d="M100.587 120.468C103.436 122.251 106.76 123.612 109.904 124.799C110.26 124.933 110.415 124.363 110.061 124.23C106.972 123.064 103.689 121.715 100.886 119.96C100.562 119.757 100.265 120.267 100.587 120.468Z" fill="#1F394C"/>
<path d="M125.813 125.06C122.96 126.245 120.045 127.216 117.049 127.975C116.681 128.069 116.837 128.638 117.207 128.544C120.202 127.784 123.119 126.814 125.971 125.628C126.317 125.484 126.165 124.913 125.813 125.06Z" fill="#1F394C"/>
<path d="M102.366 137.406L104.165 153.624C104.389 155.652 106.11 157.187 108.159 157.187H118.543C120.592 157.187 122.312 155.652 122.537 153.624L124.337 137.406C124.433 136.523 123.741 135.752 122.848 135.752H103.854C102.962 135.752 102.268 136.523 102.366 137.406Z" fill="#CFE5ED"/>
<path d="M122.848 135.752H116.262C117.155 135.752 117.848 136.523 117.751 137.406L115.951 153.624C115.726 155.652 114.006 157.187 111.957 157.187H118.543C120.592 157.187 122.312 155.652 122.537 153.624L124.337 137.406C124.433 136.523 123.74 135.752 122.848 135.752Z" fill="#AAC6CE"/>
<path d="M29.1278 31.4429C31.6678 31.4429 33.7269 32.3997 33.7269 33.5798V35.1062H24.5287V33.5798C24.5287 32.3997 26.5879 31.4429 29.1278 31.4429ZM33.1137 33.5798C33.1137 32.7373 31.3293 32.0535 29.1278 32.0535C26.9264 32.0535 25.1419 32.7373 25.1419 33.5798V34.4957H33.1137V33.5798ZM29.1278 25.9481C29.697 25.9481 30.2429 26.1732 30.6454 26.5739C31.0479 26.9747 31.2741 27.5182 31.2741 28.085C31.2741 28.6517 31.0479 29.1952 30.6454 29.596C30.2429 29.9967 29.697 30.2219 29.1278 30.2219C28.5586 30.2219 28.0127 29.9967 27.6102 29.596C27.2077 29.1952 26.9816 28.6517 26.9816 28.085C26.9816 27.5182 27.2077 26.9747 27.6102 26.5739C28.0127 26.1732 28.5586 25.9481 29.1278 25.9481ZM29.1278 26.5586C28.7212 26.5586 28.3313 26.7194 28.0438 27.0057C27.7563 27.2919 27.5948 27.6801 27.5948 28.085C27.5948 28.4898 27.7563 28.878 28.0438 29.1643C28.3313 29.4505 28.7212 29.6113 29.1278 29.6113C29.5344 29.6113 29.9243 29.4505 30.2118 29.1643C30.4993 28.878 30.6609 28.4898 30.6609 28.085C30.6609 27.6801 30.4993 27.2919 30.2118 27.0057C29.9243 26.7194 29.5344 26.5586 29.1278 26.5586Z" fill="white"/>
</svg>
