<svg width="19" height="18" viewBox="0 0 19 18" fill="none" xmlns="http://www.w3.org/2000/svg">
<path d="M11.4199 2.49482C11.6346 2.2864 11.8908 2.12043 12.1737 2.00651C12.4566 1.8926 12.7605 1.83302 13.0679 1.83122C13.3753 1.82942 13.68 1.88544 13.9644 1.99603C14.2487 2.10662 14.5071 2.26958 14.7245 2.47546C14.9419 2.68135 15.114 2.92607 15.2308 3.19543C15.3476 3.46479 15.4068 3.75344 15.405 4.04465C15.4032 4.33585 15.3404 4.62382 15.2202 4.89186C15.1001 5.1599 14.9249 5.40267 14.705 5.60612L13.4966 6.75002L13.5783 6.82742C13.7548 6.99457 13.8948 7.19304 13.9904 7.41147C14.0859 7.6299 14.1351 7.86403 14.1351 8.10047C14.1351 8.33691 14.0859 8.57103 13.9904 8.78947C13.8948 9.0079 13.7548 9.20636 13.5783 9.37352L12.2103 10.6686C12.1207 10.7506 12.0007 10.7959 11.8762 10.7949C11.7516 10.7939 11.6325 10.7466 11.5444 10.6631C11.4564 10.5797 11.4064 10.4668 11.4053 10.3488C11.4042 10.2309 11.4521 10.1172 11.5387 10.0323L12.9067 8.73632C13.0847 8.56754 13.1848 8.33867 13.1848 8.10002C13.1848 7.86137 13.0847 7.63249 12.9067 7.46372L12.825 7.38632L6.51125 13.3686C6.45013 13.4262 6.37361 13.467 6.2899 13.4865L2.4899 14.3865C2.40738 14.4059 2.32088 14.404 2.23941 14.381C2.15794 14.3579 2.0845 14.3145 2.02675 14.2554C1.96901 14.1963 1.92907 14.1236 1.91111 14.0448C1.89315 13.9661 1.89783 13.8843 1.92465 13.8078L3.11215 10.4328C3.13531 10.3668 3.17433 10.3067 3.22615 10.2573L11.4209 2.49482H11.4199ZM14.0324 3.13112C13.775 2.88765 13.4262 2.7509 13.0625 2.7509C12.6987 2.7509 12.3499 2.88765 12.0925 3.13112L3.9776 10.818L3.09885 13.3146L5.93175 12.6441L14.0324 4.96982C14.2897 4.72595 14.4342 4.39526 14.4342 4.05047C14.4342 3.70567 14.2897 3.37499 14.0324 3.13112V3.13112ZM3.0561 15.1803L3.10455 15.2145C3.8104 15.7005 4.85635 16.2 6.17495 16.2C6.8808 16.2 7.52775 15.966 8.1025 15.6564C8.67535 15.3468 9.20735 14.9454 9.68045 14.5809L9.7916 14.4954C10.2324 14.1552 10.6105 13.8645 10.9582 13.6701C11.3411 13.4559 11.57 13.4289 11.7249 13.4775C11.9766 13.5567 12.1201 13.7412 12.3699 14.5296C12.4526 14.7924 12.6007 15.0786 12.8173 15.3099C13.0349 15.5412 13.3579 15.7509 13.775 15.7509C14.2253 15.7509 14.6708 15.5448 15.0147 15.3531C15.2418 15.2262 15.4849 15.0669 15.6825 14.9391C15.7804 14.8761 15.8659 14.8194 15.9333 14.7771C16.1879 14.6214 16.4026 14.5206 16.5499 14.4594C16.623 14.4288 16.6791 14.4081 16.7152 14.3964L16.7532 14.3838L16.7589 14.382C16.8798 14.3485 16.9818 14.2708 17.0422 14.1661C17.1027 14.0613 17.1168 13.9381 17.0814 13.8236C17.046 13.709 16.964 13.6124 16.8535 13.5551C16.7429 13.4978 16.6129 13.4845 16.492 13.518H16.491L16.4882 13.5198L16.4815 13.5216L16.4615 13.5279L16.395 13.5486C16.318 13.5748 16.2419 13.6036 16.167 13.635C15.9063 13.7448 15.6554 13.8742 15.4166 14.022C15.3054 14.0913 15.198 14.1606 15.0916 14.2308C14.9098 14.353 14.7232 14.4686 14.5321 14.5773C14.2082 14.7591 13.9526 14.85 13.775 14.85C13.718 14.85 13.6324 14.823 13.5279 14.7114C13.4137 14.5824 13.3292 14.4322 13.28 14.2704C13.052 13.5504 12.805 12.87 12.026 12.6234C11.4674 12.447 10.924 12.6441 10.4756 12.8943C10.0624 13.1256 9.6282 13.4613 9.20545 13.7871L9.08195 13.8825C8.60505 14.2488 8.12815 14.6061 7.63225 14.8743C7.13825 15.1407 6.6566 15.3 6.17495 15.3C5.46625 15.3 4.84875 15.12 4.33765 14.877L3.0561 15.1803V15.1803ZM16.625 13.95L16.492 13.518L16.625 13.95Z" fill="black"/>
</svg>
