<svg width="17" height="17" viewBox="0 0 17 17" fill="none" xmlns="http://www.w3.org/2000/svg">
<path d="M14.875 14.875C14.875 15.0159 14.819 15.151 14.7194 15.2507C14.6198 15.3503 14.4846 15.4062 14.3438 15.4062H2.65625C2.51535 15.4062 2.38023 15.3503 2.2806 15.2507C2.18097 15.151 2.125 15.0159 2.125 14.875C2.125 14.7341 2.18097 14.599 2.2806 14.4993C2.38023 14.3997 2.51535 14.3438 2.65625 14.3438H14.3438C14.4846 14.3438 14.6198 14.3997 14.7194 14.4993C14.819 14.599 14.875 14.7341 14.875 14.875ZM14.875 9.5625V12.2188C14.875 12.5005 14.7631 12.7708 14.5638 12.9701C14.3645 13.1693 14.0943 13.2812 13.8125 13.2812H3.1875C2.90571 13.2812 2.63546 13.1693 2.4362 12.9701C2.23694 12.7708 2.125 12.5005 2.125 12.2188V9.5625C2.125 9.28071 2.23694 9.01046 2.4362 8.8112C2.63546 8.61194 2.90571 8.5 3.1875 8.5H6.78008L5.7375 3.63242C5.67115 3.32257 5.67494 3.0018 5.74859 2.6936C5.82224 2.3854 5.96389 2.09757 6.16316 1.85119C6.36243 1.60481 6.61428 1.40611 6.90026 1.26965C7.18625 1.13319 7.49914 1.06241 7.81602 1.0625H9.18398C9.50086 1.06241 9.81375 1.13319 10.0997 1.26965C10.3857 1.40611 10.6376 1.60481 10.8368 1.85119C11.0361 2.09757 11.1778 2.3854 11.2514 2.6936C11.3251 3.0018 11.3288 3.32257 11.2625 3.63242L10.2199 8.5H13.8125C14.0943 8.5 14.3645 8.61194 14.5638 8.8112C14.7631 9.01046 14.875 9.28071 14.875 9.5625ZM7.86914 8.5H9.13086L10.2266 3.41328C10.2604 3.25785 10.2588 3.09681 10.2221 2.94204C10.1853 2.78728 10.1143 2.64274 10.0143 2.51909C9.91419 2.39544 9.78763 2.29584 9.64393 2.22763C9.50023 2.15942 9.34305 2.12435 9.18398 2.125H7.81602C7.65695 2.12435 7.49977 2.15942 7.35607 2.22763C7.21237 2.29584 7.08581 2.39544 6.98575 2.51909C6.88568 2.64274 6.81465 2.78728 6.77791 2.94204C6.74116 3.09681 6.73963 3.25785 6.77344 3.41328L7.86914 8.5ZM13.8125 12.2188V9.5625H3.1875V12.2188H13.8125Z" fill="black"/>
</svg>
